<svg width="458" height="207" viewBox="0 0 458 207" fill="none" xmlns="http://www.w3.org/2000/svg">
<path d="M159.591 1.17427e-06C168.88 1.29675e-06 177.463 4.95557 182.108 13L226.638 90.1287C231.282 98.1732 231.282 108.084 226.638 116.129L182.108 193.257C177.463 201.302 168.88 206.257 159.591 206.257H70.5303C61.2414 206.257 52.6581 201.302 48.0136 193.257L3.48334 116.129C-1.16111 108.084 -1.16111 98.1732 3.48334 90.1287L48.0136 13C52.6581 4.95558 61.2414 -1.22475e-07 70.5303 0L159.591 1.17427e-06Z" fill="#4FBFAF"/>
<path d="M74.3912 67.4586C74.3912 64.6972 76.6298 62.4586 79.3912 62.4586H95.3912C98.1527 62.4586 100.391 64.6972 100.391 67.4586V135.459C100.391 138.22 98.1527 140.459 95.3912 140.459H79.3912C76.6298 140.459 74.3912 138.22 74.3912 135.459V67.4586Z" fill="#070709"/>
<path d="M126.391 67.4586C126.391 64.6972 128.63 62.4586 131.391 62.4586H147.391C150.153 62.4586 152.391 64.6972 152.391 67.4586V89.4586C152.391 92.22 150.153 94.4586 147.391 94.4586H131.391C128.63 94.4586 126.391 92.22 126.391 89.4586V67.4586Z" fill="#070709"/>
<path d="M100.391 35.4586C100.391 32.6972 102.63 30.4586 105.391 30.4586H121.391C124.153 30.4586 126.391 32.6972 126.391 35.4586V57.4586C126.391 60.22 124.153 62.4586 121.391 62.4586H105.391C102.63 62.4586 100.391 60.22 100.391 57.4586V35.4586Z" fill="#070709"/>
<path d="M126.391 67.4586C126.391 64.6972 128.63 62.4586 131.391 62.4586H130.391C128.182 62.4586 126.391 60.6677 126.391 58.4586V57.4586C126.391 60.22 124.153 62.4586 121.391 62.4586H122.391C124.6 62.4586 126.391 64.2495 126.391 66.4586V67.4586Z" fill="#070709"/>
<path d="M100.391 145.459C100.391 142.697 102.63 140.459 105.391 140.459H121.391C124.153 140.459 126.391 142.697 126.391 145.459V167.459C126.391 170.22 124.153 172.459 121.391 172.459H105.391C102.63 172.459 100.391 170.22 100.391 167.459V145.459Z" fill="#070709"/>
<path d="M100.391 145.459C100.391 142.697 102.63 140.459 105.391 140.459H104.391C102.182 140.459 100.391 138.668 100.391 136.459V135.459C100.391 138.22 98.1527 140.459 95.3912 140.459H96.3912C98.6004 140.459 100.391 142.249 100.391 144.459V145.459Z" fill="#070709"/>
<path d="M126.391 145.459C126.391 142.697 124.153 140.459 121.391 140.459H105.391C102.63 140.459 100.391 142.697 100.391 145.459V167.459C100.391 170.22 102.63 172.459 105.391 172.459H121.391C124.153 172.459 126.391 170.22 126.391 167.459V145.459Z" fill="#070709"/>
<path d="M152.391 113.459C152.391 110.697 150.153 108.459 147.391 108.459H131.391C128.63 108.459 126.391 110.697 126.391 113.459V135.459C126.391 138.22 128.63 140.459 131.391 140.459H147.391C150.153 140.459 152.391 138.22 152.391 135.459V113.459Z" fill="#070709"/>
<path d="M126.391 145.459C126.391 142.697 124.153 140.459 121.391 140.459H122.391C124.6 140.459 126.391 138.668 126.391 136.459V135.459C126.391 138.22 128.63 140.459 131.391 140.459H130.391C128.182 140.459 126.391 142.249 126.391 144.459V145.459Z" fill="#070709"/>
<path d="M300.141 96.125C293.766 96.125 288.172 94.625 283.359 91.625C278.578 88.625 274.859 84.4844 272.203 79.2031C269.547 73.8906 268.219 67.7969 268.219 60.9219C268.219 54.2344 269.484 48.2969 272.016 43.1094C274.578 37.9219 278.234 33.8438 282.984 30.875C287.734 27.875 293.422 26.375 300.047 26.375C306.766 26.375 312.641 28.1094 317.672 31.5781C322.703 35.0469 326.047 40.3281 327.703 47.4219L318.75 49.5312C317.406 43.9688 315.062 39.875 311.719 37.25C308.406 34.625 304.469 33.3125 299.906 33.3125C295.156 33.3125 291.094 34.5156 287.719 36.9219C284.375 39.3281 281.812 42.625 280.031 46.8125C278.25 51 277.359 55.7969 277.359 61.2031C277.359 66.7031 278.266 71.5625 280.078 75.7812C281.922 80 284.5 83.2969 287.812 85.6719C291.125 88.0156 295.031 89.1875 299.531 89.1875C304.438 89.1875 308.672 87.7031 312.234 84.7344C315.797 81.7656 318.062 77.6406 319.031 72.3594L328.266 74.8906C326.422 81.8281 322.969 87.1094 317.906 90.7344C312.844 94.3281 306.922 96.125 300.141 96.125ZM356.792 96.125C351.979 96.125 347.808 95.0469 344.276 92.8906C340.776 90.7344 338.073 87.6875 336.167 83.75C334.261 79.7812 333.308 75.1094 333.308 69.7344C333.308 64.3281 334.261 59.6406 336.167 55.6719C338.073 51.7031 340.761 48.6406 344.229 46.4844C347.698 44.3281 351.776 43.25 356.464 43.25C359.151 43.25 361.839 43.6875 364.526 44.5625C367.245 45.4062 369.714 46.8906 371.933 49.0156C374.183 51.1094 375.979 54 377.323 57.6875C378.698 61.3438 379.386 65.9688 379.386 71.5625H338.37V65.1875H372.542L370.292 68.1406C370.136 63.7031 369.417 60.1406 368.136 57.4531C366.854 54.7656 365.183 52.8281 363.12 51.6406C361.089 50.4219 358.823 49.8125 356.323 49.8125C353.354 49.8125 350.792 50.5938 348.636 52.1562C346.479 53.6875 344.823 55.9375 343.667 58.9062C342.511 61.875 341.933 65.5 341.933 69.7812C341.933 76.0938 343.214 80.9688 345.776 84.4062C348.37 87.8438 352.042 89.5625 356.792 89.5625C360.198 89.5625 363.058 88.7031 365.37 86.9844C367.714 85.2656 369.433 82.7812 370.526 79.5312L378.261 82.1562C377.042 85.0938 375.417 87.6094 373.386 89.7031C371.354 91.7656 368.933 93.3594 366.12 94.4844C363.339 95.5781 360.229 96.125 356.792 96.125ZM395.818 95C393.818 95 392.068 94.3438 390.568 93.0312C389.068 91.6875 388.318 90 388.318 87.9688V24.6875H396.193V85.8594C396.193 86.8906 396.334 87.5781 396.615 87.9219C396.927 88.2656 397.568 88.4375 398.537 88.4375H403.459V95H395.818ZM417.782 95C415.782 95 414.032 94.3438 412.532 93.0312C411.032 91.6875 410.282 90 410.282 87.9688V24.6875H418.157V85.8594C418.157 86.8906 418.298 87.5781 418.579 87.9219C418.891 88.2656 419.532 88.4375 420.501 88.4375H425.423V95H417.782ZM269.812 181L273.562 113.5H287.438L306.562 174.906H304.688L323.906 113.5H337.781L341.531 181H333.375L330.094 119.875H330.234L310.406 181H301.031L281.109 119.875H281.25L277.969 181H269.812ZM365.558 182.125C362.183 182.125 359.245 181.484 356.745 180.203C354.276 178.891 352.37 177.109 351.026 174.859C349.683 172.609 349.011 170.062 349.011 167.219C349.011 164.188 349.901 161.391 351.683 158.828C353.464 156.266 356.214 154.219 359.933 152.688C363.683 151.125 368.479 150.344 374.323 150.344H382.761L381.917 151.188V148.422C381.917 144.359 381.104 141.25 379.479 139.094C377.854 136.906 375.136 135.812 371.323 135.812C367.729 135.812 364.964 136.75 363.026 138.625C361.089 140.469 360.058 142.953 359.933 146.078L351.073 144.062C351.354 141.344 352.386 138.875 354.167 136.656C355.979 134.406 358.386 132.609 361.386 131.266C364.417 129.922 367.917 129.25 371.886 129.25C375.979 129.25 379.308 130.031 381.87 131.594C384.464 133.125 386.37 135.344 387.589 138.25C388.808 141.156 389.417 144.656 389.417 148.75V171.859C389.417 172.891 389.558 173.578 389.839 173.922C390.151 174.266 390.792 174.438 391.761 174.438H394.62V181H389.604C387.479 181 385.698 180.344 384.261 179.031C382.823 177.688 382.104 176 382.104 173.969V170.406H383.276C382.776 171.719 382.058 173.062 381.12 174.438C380.183 175.781 378.995 177.047 377.558 178.234C376.12 179.391 374.401 180.328 372.401 181.047C370.433 181.766 368.151 182.125 365.558 182.125ZM367.339 175.562C369.933 175.562 372.339 174.922 374.558 173.641C376.776 172.359 378.558 170.359 379.901 167.641C381.276 164.891 381.964 161.328 381.964 156.953V156.531H374.042C369.886 156.531 366.604 157.078 364.198 158.172C361.823 159.266 360.136 160.625 359.136 162.25C358.136 163.844 357.636 165.438 357.636 167.031C357.636 168.625 357.995 170.062 358.714 171.344C359.433 172.625 360.511 173.656 361.948 174.438C363.386 175.188 365.183 175.562 367.339 175.562ZM402.849 199.281V130.375H410.256V140.922L410.021 140.172C411.396 136.484 413.678 133.75 416.865 131.969C420.053 130.156 423.443 129.25 427.037 129.25C431.162 129.25 434.787 130.328 437.912 132.484C441.037 134.641 443.474 137.703 445.224 141.672C446.974 145.641 447.849 150.328 447.849 155.734C447.849 161.141 446.959 165.828 445.178 169.797C443.428 173.734 440.99 176.781 437.865 178.938C434.74 181.062 431.131 182.125 427.037 182.125C423.724 182.125 420.443 181.297 417.193 179.641C413.943 177.984 411.49 175.188 409.834 171.25L410.537 170.875V199.281H402.849ZM424.881 175.562C429.068 175.562 432.506 173.844 435.193 170.406C437.881 166.938 439.224 161.984 439.224 155.547C439.224 149.297 437.928 144.453 435.334 141.016C432.74 137.547 429.287 135.812 424.974 135.812C422.349 135.812 419.928 136.5 417.709 137.875C415.521 139.25 413.771 141.391 412.459 144.297C411.146 147.203 410.49 150.953 410.49 155.547C410.49 162.328 411.896 167.359 414.709 170.641C417.521 173.922 420.912 175.562 424.881 175.562Z" fill="white"/>
</svg>
